<?xml version="1.0" encoding="UTF-8"?>
<svg version="1.1" xmlns="http://www.w3.org/2000/svg" width="374" height="374">
<path d="M0 0 C0.76732452 -0.00979385 1.53464905 -0.01958771 2.32522583 -0.02967834 C46.42647292 -0.47628803 88.35426573 9.79664457 123.75 37.23828125 C124.68972656 37.96660156 125.62945312 38.69492187 126.59765625 39.4453125 C137.80963871 48.39876612 147.99440371 57.84185879 156.75 69.23828125 C157.56082031 70.24503906 158.37164062 71.25179687 159.20703125 72.2890625 C182.31656701 101.15260099 197.59326833 139.28462621 197.98828125 176.48828125 C197.9980751 177.25560577 198.00786896 178.0229303 198.01795959 178.81350708 C198.46456928 222.91475417 188.19163668 264.84254698 160.75 300.23828125 C160.02167969 301.17800781 159.29335938 302.11773437 158.54296875 303.0859375 C149.58951513 314.29791996 140.14642246 324.48268496 128.75 333.23828125 C127.74324219 334.04910156 126.73648437 334.85992187 125.69921875 335.6953125 C96.83568026 358.80484826 58.70365504 374.08154958 21.5 374.4765625 C20.73267548 374.48635635 19.96535095 374.49615021 19.17477417 374.50624084 C-24.92647292 374.95285053 -66.85426573 364.67991793 -102.25 337.23828125 C-103.18972656 336.50996094 -104.12945312 335.78164063 -105.09765625 335.03125 C-116.30963871 326.07779638 -126.49440371 316.63470371 -135.25 305.23828125 C-136.06082031 304.23152344 -136.87164062 303.22476562 -137.70703125 302.1875 C-160.81656701 273.32396151 -176.09326833 235.19193629 -176.48828125 197.98828125 C-176.4980751 197.22095673 -176.50786896 196.4536322 -176.51795959 195.66305542 C-176.96456928 151.56180833 -166.69163668 109.63401552 -139.25 74.23828125 C-138.52167969 73.29855469 -137.79335937 72.35882813 -137.04296875 71.390625 C-128.08951513 60.17864254 -118.64642246 49.99387754 -107.25 41.23828125 C-106.24324219 40.42746094 -105.23648438 39.61664063 -104.19921875 38.78125 C-75.33568026 15.67171424 -37.20365504 0.39501292 0 0 Z " fill="#2D2D2D" transform="translate(176.25,-0.23828125)"/>
<path d="M0 0 C3 1.625 3 1.625 5 4 C5.763125 4.886875 6.52625 5.77375 7.3125 6.6875 C9.50020388 10.9818817 9.82244712 14.27092906 9 19 C7.37930037 23.29154647 5.01487828 26.66878035 1 29 C-4.09407863 30.69802621 -8.90186248 30.8718259 -13.75 28.5 C-17.7420472 25.9147612 -19.5823524 22.46265399 -21 18 C-21.84401552 11.98638939 -20.19580443 8.89357554 -17 4 C-16.34 4 -15.68 4 -15 4 C-15 3.34 -15 2.68 -15 2 C-10.32819537 -1.11453642 -5.46944957 -0.59289426 0 0 Z " fill="#6380E5" transform="translate(169,35)"/>
<path d="M0 0 C4.70674388 1.62596607 7.47072742 3.69086894 10 8 C11.21249543 12.49287691 11.39176322 15.90718681 9.8125 20.3125 C8.06108732 22.90942225 6.39936815 24.98762672 4 27 C3.34 27 2.68 27 2 27 C2 27.66 2 28.32 2 29 C-1.96 29 -5.92 29 -10 29 C-10 28.34 -10 27.68 -10 27 C-10.86625 26.9071875 -10.86625 26.9071875 -11.75 26.8125 C-15.43911231 25.48032055 -17.28909007 22.42181986 -19 19 C-19.57128596 14.31732822 -19.47735358 10.90356213 -17.25 6.6875 C-16.5075 5.800625 -15.765 4.91375 -15 4 C-14.484375 3.21625 -13.96875 2.4325 -13.4375 1.625 C-9.30298946 -1.13134036 -4.80434173 -0.57177942 0 0 Z " fill="#16C4F4" transform="translate(102,141)"/>
<path d="M0 0 C4.40666894 2.29560141 7.08830653 5.43999722 9 10 C9.68385519 15.86161589 8.96189904 19.44789078 5.53515625 24.296875 C2.31201852 27.87267156 -0.97176007 28.8553366 -5.68359375 29.19140625 C-10.58203736 29.07841637 -14.13327698 28.61792987 -17.625 25 C-20.50500193 20.92625814 -21.37713763 16.94664242 -21 12 C-17.62557951 0.75193172 -11.17623805 -1.96580817 0 0 Z " fill="#E214D2" transform="translate(276,101)"/>
<path d="M0 0 C1.12148437 -0.02835938 2.24296875 -0.05671875 3.3984375 -0.0859375 C7.27686097 0.468123 8.84697733 1.67099215 11.625 4.375 C15.10665527 9.41739729 15.47483526 14.43581038 14.625 20.375 C12.76516774 24.46663098 11.26839112 25.98391912 7.4375 28.3125 C1.81974215 29.87810465 -2.59701335 28.99233037 -8.1875 27.75 C-11.50191497 25.66665345 -13.08908699 22.97282044 -14.375 19.375 C-15.56278076 13.23813274 -14.19776708 9.11154565 -10.76171875 4.00390625 C-7.52325181 0.1998479 -4.74543735 0.05429562 0 0 Z " fill="#9657E1" transform="translate(204.375,205.625)"/>
<path d="M0 0 C0.91007812 0.00902344 1.82015625 0.01804687 2.7578125 0.02734375 C3.45648438 0.03894531 4.15515625 0.05054687 4.875 0.0625 C4.875 0.7225 4.875 1.3825 4.875 2.0625 C5.473125 2.145 6.07125 2.2275 6.6875 2.3125 C9.56465781 3.29895411 10.28922677 4.49505762 11.875 7.0625 C12.67393471 11.09712028 12.80275262 15.25853657 10.890625 18.9765625 C8.60625422 21.8390765 6.24277022 23.71289264 2.875 25.0625 C-0.96514158 25.39224382 -4.71083464 25.20381463 -7.78515625 22.72265625 C-11.22466528 18.6213175 -12.52349452 15.59374958 -12.484375 10.234375 C-11.8643563 6.48730545 -9.71012008 3.76512554 -7.125 1.0625 C-4.60024538 -0.19987731 -2.81299534 -0.03606404 0 0 Z " fill="#D61CD1" transform="translate(262.125,67.9375)"/>
<path d="M0 0 C3.19026068 2.43249417 5.21962967 5.43925933 7 9 C7.04454997 13.53518731 6.58326225 17.08622248 4.125 20.9375 C1.11487859 23.85908843 -0.53508917 24.93801189 -4.75 25.5 C-9.22865826 25.41721519 -11.48191367 23.49769417 -14.65234375 20.5078125 C-17.62538844 17.18144946 -17.38417765 13.83543988 -17.359375 9.55078125 C-16.78039966 5.44131496 -15.00085071 3.78650423 -12 1 C-8.23225388 -0.88387306 -4.08023179 -0.78730353 0 0 Z " fill="#20B9EF" transform="translate(111,107)"/>
<path d="M0 0 C4.81883915 2.4566631 7.30951028 4.82909026 9 10 C9.11200104 13.86776918 8.51468088 17.10490282 6.5625 20.5 C5 22 5 22 3 22 C2.67 22.99 2.34 23.98 2 25 C-6.98185246 25.78482206 -6.98185246 25.78482206 -11 22.6875 C-14.92326191 17.41561681 -15.71597565 14.45514556 -15 8 C-13.59471779 4.40872325 -12.43148426 3.27806764 -9.1875 1.1875 C-5.71472323 -0.10627958 -3.66458779 -0.53441905 0 0 Z " fill="#BD33D6" transform="translate(243,200)"/>
<path d="M0 0 C3.3792573 2.03005291 6.22397384 4.44794768 8 8 C8.53118173 11.79415519 8.85089348 15.46331178 6.953125 18.890625 C4.44119565 21.93449233 2.52172892 23.75881094 -1.390625 24.37890625 C-8.82770093 24.85642342 -8.82770093 24.85642342 -12.05859375 22.49609375 C-14.71214171 19.2443839 -16.3572499 16.15644504 -16.6875 11.9375 C-15.8720391 7.26713302 -14.25437351 4.40229958 -11 1 C-7.48308711 -0.75845645 -3.82789463 -0.68065337 0 0 Z " fill="#D81CD2" transform="translate(266,139)"/>
<path d="M0 0 C0 0.66 0 1.32 0 2 C0.639375 2.28875 1.27875 2.5775 1.9375 2.875 C4 4 4 4 5 6 C5.70897889 10.97298051 5.56883243 14.81802629 2.625 19 C-0.7382134 22.84367246 -0.7382134 22.84367246 -4.20703125 23.2734375 C-11.26840855 23.54869359 -11.26840855 23.54869359 -15 20.75 C-18.18858098 16.36570115 -19.523768 13.6752601 -19.38671875 8.03515625 C-18.67689149 4.29960068 -16.75468213 2.5668629 -14 0 C-10.24090643 -1.81473482 -3.63447223 -1.81723612 0 0 Z " fill="#8E5CDF" transform="translate(206,47)"/>
<path d="M0 0 C3.72619877 0.07315835 5.43402856 0.23533206 8.75 2.0625 C11.76257167 5.65815006 12.58307775 8.20547086 13 12.875 C12.56907844 17.70132143 11.22344384 20.06493026 7.5625 23.1875 C3.53896086 24.8493966 -0.02024105 25.08388487 -4.3125 24.375 C-7.78118763 22.30854779 -10.12141972 20.27308091 -11.3125 16.375 C-11.90884961 10.21272067 -11.32881683 7.33633256 -7.3125 2.375 C-4.73850489 -0.19899511 -3.57680716 0.04840064 0 0 Z " fill="#3AA4ED" transform="translate(127.3125,45.625)"/>
<path d="M0 0 C3.22344672 2.4340312 4.7746971 4.66204565 7 8 C7.47594047 12.20414081 7.27531214 14.46976921 5.3125 18.25 C2.51703384 21.57433813 0.43450648 23.55466345 -3.921875 24.3515625 C-8.04335157 24.64595368 -9.55292893 24.35960064 -12.875 21.6875 C-16.3490308 17.29387281 -17.59742076 14.88284657 -17.42578125 9.36328125 C-16.798203 5.87993407 -15.50924234 3.77685111 -13.046875 1.26171875 C-8.94576349 -1.26625647 -4.58531393 -1.01352213 0 0 Z " fill="#6A7BE5" transform="translate(174,201)"/>
<path d="M0 0 C0.99 0.33 1.98 0.66 3 1 C3 1.66 3 2.32 3 3 C3.61875 3.2475 4.2375 3.495 4.875 3.75 C7.44122522 5.25954425 7.92430784 6.25966205 9 9 C9.34306516 13.91726732 8.67396013 17.19124784 5.5 21 C4.675 21.66 3.85 22.32 3 23 C2.67 23.33 2.34 23.66 2 24 C-3.4653588 24.64190456 -7.64204863 25.03204304 -12.125 21.625 C-15.39457535 17.04759451 -15.53666562 13.52957257 -15 8 C-11.74714413 0.51843149 -7.59844343 -0.48244085 0 0 Z " fill="#20BBF2" transform="translate(109,178)"/>
<path d="M0 0 C1.32 0 2.64 0 4 0 C4 10.89 4 21.78 4 33 C2.68 33 1.36 33 0 33 C-0.33 32.34 -0.66 31.68 -1 31 C-1.99 31.66 -2.98 32.32 -4 33 C-7.09513519 33.39937228 -9.0385906 33.63376466 -12 33 C-15.42024707 30.2923044 -16.72928995 28.81233254 -17.37109375 24.515625 C-17.48052539 20.16410806 -17.38706628 16.75110416 -15 13 C-11.22346468 10.6501558 -8.44941586 9.60740448 -4 10 C-3.67 10.99 -3.34 11.98 -3 13 C-2.34 13 -1.68 13 -1 13 C-0.67 8.71 -0.34 4.42 0 0 Z " fill="#9D41C9" transform="translate(250,257)"/>
<path d="M0 0 C4.95 0 9.9 0 15 0 C20 5 20 5 20.5625 8.5625 C19.92481456 12.45946655 19.14332382 13.68873249 16 16 C15.34 16 14.68 16 14 16 C14.42152344 16.74765625 14.84304687 17.4953125 15.27734375 18.265625 C15.82519531 19.25046875 16.37304688 20.2353125 16.9375 21.25 C17.48277344 22.22453125 18.02804688 23.1990625 18.58984375 24.203125 C19.76610835 26.53610409 20.52101691 28.45350762 21 31 C19.35 31 17.7 31 16 31 C15.0204042 29.20856793 14.0413367 27.41684696 13.0625 25.625 C12.51722656 24.62726563 11.97195312 23.62953125 11.41015625 22.6015625 C10.5850241 21.07929654 9.77435609 19.54871217 9 18 C7.35 17.67 5.7 17.34 4 17 C4 21.62 4 26.24 4 31 C2.68 31 1.36 31 0 31 C0 20.77 0 10.54 0 0 Z " fill="#6C75DE" transform="translate(158,259)"/>
<path d="M0 0 C3.94702214 0.86380517 5.71537455 2.59522308 8.4453125 5.53515625 C10.05163973 8.74781071 9.92463194 12.05037437 9.4453125 15.53515625 C7.43028361 19.28727901 5.99065108 21.1715972 2.4453125 23.53515625 C-2.54704429 23.83241108 -7.09440665 23.55395685 -11.2421875 20.66015625 C-13.44118834 15.42443997 -13.82070913 9.86880115 -11.77734375 4.48828125 C-8.76449796 -0.01490463 -4.96960141 -0.28927531 0 0 Z " fill="#212627" transform="translate(51.5546875,262.46484375)"/>
<path d="M0 0 C1.4540625 0.0309375 1.4540625 0.0309375 2.9375 0.0625 C4.37005576 3.83134086 5.79394232 7.60333159 7.20996094 11.37841797 C7.69262783 12.66153445 8.17763237 13.94377415 8.66503906 15.22509766 C9.36620823 17.06960185 10.05821828 18.91757955 10.75 20.765625 C11.16894531 21.87583008 11.58789062 22.98603516 12.01953125 24.12988281 C12.9375 27.0625 12.9375 27.0625 12.9375 31.0625 C11.6175 31.0625 10.2975 31.0625 8.9375 31.0625 C7.4768715 28.41511084 6.9375 27.16801666 6.9375 24.0625 C1.9875 24.0625 -2.9625 24.0625 -8.0625 24.0625 C-8.3925 26.3725 -8.7225 28.6825 -9.0625 31.0625 C-10.7125 31.0625 -12.3625 31.0625 -14.0625 31.0625 C-13.39629927 27.25887752 -12.33889337 23.77181458 -11.03125 20.140625 C-10.63292969 19.03332031 -10.23460937 17.92601562 -9.82421875 16.78515625 C-9.40785156 15.63917969 -8.99148438 14.49320312 -8.5625 13.3125 C-8.14613281 12.15105469 -7.72976563 10.98960937 -7.30078125 9.79296875 C-3.78951788 0.0773371 -3.78951788 0.0773371 0 0 Z " fill="#D714C6" transform="translate(309.0625,258.9375)"/>
<path d="M0 0 C3.5625 1.8125 3.5625 1.8125 6 4 C6.8971875 4.7734375 6.8971875 4.7734375 7.8125 5.5625 C11.07450833 9.51124692 10.34020681 15.18298082 10 20 C9.36562656 21.6792238 8.70710678 23.35008418 8 25 C8.34150896 27.86867529 9.08522925 30.25568776 10 33 C5.23919916 32.07428872 5.23919916 32.07428872 3.2265625 31.44921875 C0.29995035 30.85876191 -2.39656191 31.09725958 -5.375 31.25 C-12.56875212 31.29838847 -12.56875212 31.29838847 -15.625 28.875 C-19.86660536 23.74042509 -21.54799318 19.79599738 -21.28125 13.171875 C-20.62272269 8.08658075 -18.0577895 4.05744225 -14.00390625 0.91796875 C-9.57277736 -1.11188561 -4.72017822 -0.7122354 0 0 Z M-14.125 6.3125 C-17.09969867 10.75866884 -16.79259107 15.89478104 -16 21 C-14.93930567 24.30531651 -14.93930567 24.30531651 -12 26 C-6.88387909 27.31444952 -2.64818393 27.90818298 2.0625 25.3125 C5.45799225 21.2598157 6.50689855 18.5002931 6.39453125 13.03515625 C5.68647817 9.38272403 3.62465368 7.56216192 1 5 C-4.06598686 2.46700657 -9.69768178 3.03628451 -14.125 6.3125 Z " fill="#0FBFE6" transform="translate(55,259)"/>
<path d="M0 0 C1.74784467 -0.13560864 3.49873926 -0.23227209 5.25 -0.3125 C6.22453125 -0.37050781 7.1990625 -0.42851562 8.203125 -0.48828125 C11 0 11 0 13.34375 2.0625 C15.41470387 5.73551253 15.40658242 8.12392029 15.25 12.3125 C15.21390625 13.56675781 15.1778125 14.82101562 15.140625 16.11328125 C15.07101563 17.54220703 15.07101563 17.54220703 15 19 C15.66 19 16.32 19 17 19 C17 19.99 17 20.98 17 22 C14.625 22.125 14.625 22.125 12 22 C11.34 21.34 10.68 20.68 10 20 C9.01 20.66 8.02 21.32 7 22 C4.19409764 22.42783066 1.8766685 22.22830702 -1 22 C-3 19 -3 19 -2.9375 15.5 C-2 12 -2 12 0.125 10.0625 C3.56701208 8.79045206 6.35841574 8.78578916 10 9 C9.67 7.35 9.34 5.7 9 4 C6.08365871 3.7497843 6.08365871 3.7497843 3 4 C2.01 5.485 2.01 5.485 1 7 C-0.32 7 -1.64 7 -3 7 C-1.125 2.25 -1.125 2.25 0 0 Z " fill="#924CCD" transform="translate(212,268)"/>
<path d="M0 0 C3.22903522 1.21850386 5.32050271 2.07341279 7.375 4.875 C8 7 8 7 8 12 C2.39 12 -3.22 12 -9 12 C-8.01 13.98 -7.02 15.96 -6 18 C-3.08347826 18.16681109 -3.08347826 18.16681109 0 18 C0.66 17.34 1.32 16.68 2 16 C3.32 16 4.64 16 6 16 C5.75 17.875 5.75 17.875 5 20 C0.87852172 22.58960139 -3.27036255 22.72161748 -8 22 C-11.03215675 19.80168636 -11.81654398 18.55036806 -13 15 C-13.53094699 10.35203781 -13.64784823 7.03655716 -11.125 3 C-7.47535397 -0.43496097 -4.95671112 -0.33044741 0 0 Z " fill="#7A5FCE" transform="translate(197,268)"/>
<path d="M0 0 C1.32 0 2.64 0 4 0 C4 6.93 4 13.86 4 21 C8.68350768 16.66388231 8.68350768 16.66388231 10.5 13.6875 C12 12 12 12 14.6875 11.75 C15.450625 11.8325 16.21375 11.915 17 12 C15.85109585 14.58503435 14.69819007 16.34492563 12.8125 18.5 C10.7584328 20.74967811 10.7584328 20.74967811 11.1953125 22.9296875 C12.1286151 25.33090292 13.31102158 26.74516264 15.0625 28.625 C18 31.79058824 18 31.79058824 18 34 C15.73046875 34.27734375 15.73046875 34.27734375 13 34 C11.05078125 32.06640625 11.05078125 32.06640625 9.3125 29.5625 C7.13194901 26.23429217 7.13194901 26.23429217 4 24 C4 27.3 4 30.6 4 34 C2.68 34 1.36 34 0 34 C0 22.78 0 11.56 0 0 Z " fill="#558FEC" transform="translate(134,256)"/>
<path d="M0 0 C1.65 0 3.3 0 5 0 C5.06058594 1.21558594 5.12117188 2.43117188 5.18359375 3.68359375 C5.26798332 5.26824228 5.3526321 6.85287702 5.4375 8.4375 C5.47681641 9.23994141 5.51613281 10.04238281 5.55664062 10.86914062 C5.4054296 14.75239561 5.4054296 14.75239561 7 18 C9.5 18.16666667 9.5 18.16666667 12 18 C14.11925604 15.88074396 13.41831017 11.3803907 13.5625 8.4375 C13.60568359 7.63119141 13.64886719 6.82488281 13.69335938 5.99414062 C13.79975262 3.99631195 13.90040888 1.9981793 14 0 C15.65 0 17.3 0 19 0 C19 7.26 19 14.52 19 22 C17.68 22 16.36 22 15 22 C15 21.34 15 20.68 15 20 C14.484375 20.33 13.96875 20.66 13.4375 21 C10.12780596 22.3578232 7.54359483 22.32214498 4 22 C1.38406847 20.16884793 1.03010545 19.09031634 0 16 C-0.07051114 13.26134713 -0.09357765 10.54972412 -0.0625 7.8125 C-0.05798828 7.06291016 -0.05347656 6.31332031 -0.04882812 5.54101562 C-0.03706354 3.69397617 -0.01912865 1.84697787 0 0 Z " fill="#2A9FD6" transform="translate(71,268)"/>
<path d="M0 0 C0 0.66 0 1.32 0 2 C0.639375 2.309375 1.27875 2.61875 1.9375 2.9375 C4 4 4 4 5 5 C5.70072993 12.12408759 5.70072993 12.12408759 3 15.5 C-1.10124986 17.55062493 -3.43807799 17.51505571 -8 17 C-10.07789851 15.4488246 -10.87405839 14.3821183 -11.6875 11.9140625 C-12.27768022 7.59099236 -12.46151739 5.70669851 -10 1.9375 C-6.37926643 -0.40089043 -4.23129241 -0.41483259 0 0 Z " fill="#1DB9EB" transform="translate(106,68)"/>
<path d="M0 0 C3.4375 0.625 3.4375 0.625 5.8125 2.75 C7.58311113 5.88261969 8.28474038 8.03514904 8.4375 11.625 C7.5 14 7.5 14 6.4375 15.625 C5.7775 15.625 5.1175 15.625 4.4375 15.625 C4.4375 16.285 4.4375 16.945 4.4375 17.625 C-3.60206273 18.39803488 -3.60206273 18.39803488 -7.125 15.5625 C-8.94031677 11.85293965 -9.21872237 9.70816143 -8.5625 5.625 C-5.94681879 1.89963585 -4.5021067 0.78984328 0 0 Z " fill="#D61ACD" transform="translate(265.5625,184.375)"/>
<path d="M0 0 C3.5 0.75 3.5 0.75 6.4375 3.375 C8.66933684 7.02709665 9.22628652 8.5738525 8.5 12.75 C6.95266113 15.44296476 6.13768878 16.55806407 3.125 17.46484375 C2.25875 17.53832031 1.3925 17.61179688 0.5 17.6875 C-0.36625 17.77902344 -1.2325 17.87054688 -2.125 17.96484375 C-4.5 17.75 -4.5 17.75 -6.25 16.4921875 C-8.38995566 13.5096243 -8.82246103 10.31722511 -8.5 6.75 C-6.7203678 2.68593608 -4.3735243 0.93718378 0 0 Z " fill="#4B92E5" transform="translate(143.5,184.25)"/>
<path d="M0 0 C0 0.66 0 1.32 0 2 C1.32 2.66 2.64 3.32 4 4 C4 6.97 4 9.94 4 13 C2.02 13.99 2.02 13.99 0 15 C0 15.66 0 16.32 0 17 C-7.26605505 17.60550459 -7.26605505 17.60550459 -10.5 14.9375 C-12.38189762 11.25211716 -12.58450518 9.09153627 -12 5 C-9.02108075 -0.83371686 -5.96431213 -0.49702601 0 0 Z " fill="#BE2FD2" transform="translate(247,168)"/>
<path d="M0 0 C2.5 1 2.5 1 4 3 C4.7117756 7.903343 4.75835173 9.86247241 2 14 C-2.17528818 16.78352545 -4.04621883 16.78631447 -9 16 C-12.2769716 13.29649843 -12.90134941 11.62478708 -13.5625 7.4375 C-13 4 -13 4 -11 1.5625 C-6.88019751 -0.58323046 -4.62484056 -0.51387117 0 0 Z " fill="#A942D6" transform="translate(229,69)"/>
<path d="M0 0 C0 0.66 0 1.32 0 2 C0.99 2.33 1.98 2.66 3 3 C4.60420518 6.20841035 4.47462745 9.5193987 4 13 C2.5 15.5 2.5 15.5 0 17 C-2.75841574 17.31584913 -5.20601454 17.1862657 -8 17 C-8 16.34 -8 15.68 -8 15 C-8.99 14.67 -9.98 14.34 -11 14 C-12.55024464 10.89951072 -12.28992015 8.42105782 -12 5 C-9.02108075 -0.83371686 -5.96431213 -0.49702601 0 0 Z " fill="#BF30D3" transform="translate(247,46)"/>
<path d="M0 0 C2.12890625 0.484375 2.12890625 0.484375 4.69140625 2.609375 C6.39414493 6.01485236 6.8322914 7.73298752 6.12890625 11.484375 C4.12918913 14.35896836 2.63951597 16.11345301 -0.84375 16.96875 C-4.58999162 17.22083355 -6.511524 16.79000928 -9.37109375 14.359375 C-11.13848679 10.97187167 -11.49883945 9.2508492 -10.87109375 5.484375 C-8.29594262 0.33407274 -5.41261742 -0.32101191 0 0 Z " fill="#36A5EA" transform="translate(126.87109375,207.515625)"/>
<path d="M0 0 C2.0625 2.125 2.0625 2.125 3 5 C2.79494569 10.94657504 2.79494569 10.94657504 0.7265625 13.6875 C-1.47247545 15.35916686 -2.7604704 15.4023953 -5.5 15.375 C-6.2734375 15.38273437 -7.046875 15.39046875 -7.84375 15.3984375 C-10.53278369 14.90155084 -11.3856309 14.18385513 -13 12 C-13.85939712 9.35109876 -14.10088656 6.77998519 -14 4 C-11.02264623 -1.80583986 -5.67077672 -1.69769615 0 0 Z " fill="#36A7EC" transform="translate(130,87)"/>
<path d="M0 0 C3.0625 2.375 3.0625 2.375 5 5 C5 5.66 5 6.32 5 7 C0.125 6.125 0.125 6.125 -1 5 C-3.67058851 4.85884839 -6.32432238 4.95752893 -9 5 C-10.12256131 7.24512262 -10.13413762 8.51456649 -10.125 11 C-10.12757812 11.70125 -10.13015625 12.4025 -10.1328125 13.125 C-10.11377236 15.09153775 -10.11377236 15.09153775 -9 17 C-4.9899066 17.17864631 -4.9899066 17.17864631 -1 17 C-0.34 16.34 0.32 15.68 1 15 C2.32 15 3.64 15 5 15 C3.52661706 19.66571265 3.52661706 19.66571265 1.203125 21.140625 C-2.49669684 22.58381792 -6.09691803 22.60268177 -10 22 C-12.50160818 20.12379387 -13.61945652 18.76108697 -15 16 C-15.12148305 14.37834248 -15.17543652 12.75115673 -15.1875 11.125 C-15.20167969 10.26132812 -15.21585937 9.39765625 -15.23046875 8.5078125 C-14.97998826 5.78224515 -14.54598753 4.25314271 -13 2 C-8.98549436 -0.65653333 -4.65568845 -0.83669846 0 0 Z " fill="#409AE4" transform="translate(123,268)"/>
<path d="M0 0 C4.06334236 -0.80011761 7.88078739 -0.57325524 11.5625 1.3125 C13 3 13 3 13 6 C9.30099992 5.11223998 5.65449539 4.05418136 2 3 C2.33 4.65 2.66 6.3 3 8 C3.62648438 8.19335938 4.25296875 8.38671875 4.8984375 8.5859375 C5.71570313 8.84632813 6.53296875 9.10671875 7.375 9.375 C8.18710937 9.63023437 8.99921875 9.88546875 9.8359375 10.1484375 C12 11 12 11 14 13 C13.8125 16.5 13.8125 16.5 13 20 C9.90219052 22.06520632 9.0459519 22.29477024 5.5 22.3125 C4.33984375 22.33763672 4.33984375 22.33763672 3.15625 22.36328125 C0.47805462 21.91206355 -0.41063549 21.17518797 -2 19 C-2 18.01 -2 17.02 -2 16 C1.875 16.875 1.875 16.875 3 18 C4.99958364 18.04080783 7.00045254 18.04254356 9 18 C8.80362194 16.03399225 8.80362194 16.03399225 8 14 C6.21693588 12.93960012 6.21693588 12.93960012 4.0625 12.375 C1.24747904 11.50648174 0.13620863 11.13620863 -2 9 C-2.34490322 4.94738713 -2.30163882 3.45245824 0 0 Z " fill="#BE2ED2" transform="translate(263,268)"/>
<path d="M0 0 C1.9375 1 1.9375 1 3 3 C3.52960415 6.58042244 3.65886567 9.75978228 1.9375 13 C-1.13215135 14.58433618 -3.61681143 14.36248449 -7 14 C-8.9375 13 -8.9375 13 -10 11 C-10.52960415 7.41957756 -10.65886567 4.24021772 -8.9375 1 C-5.86784865 -0.58433618 -3.38318857 -0.36248449 0 0 Z " fill="#2F2C31" transform="translate(247,272)"/>
<path d="M0 0 C1.32 0 2.64 0 4 0 C4 10.56 4 21.12 4 32 C3.01 32 2.02 32 1 32 C1 31.01 1 30.02 1 29 C0.34 29 -0.32 29 -1 29 C-1 24.38 -1 19.76 -1 15 C-0.34 15 0.32 15 1 15 C0.67 14.34 0.34 13.68 0 13 C-0.07092842 10.7927077 -0.08415025 8.58332548 -0.0625 6.375 C-0.05347656 5.18648438 -0.04445312 3.99796875 -0.03515625 2.7734375 C-0.02355469 1.85820312 -0.01195312 0.94296875 0 0 Z " fill="#B63BDB" transform="translate(250,257)"/>
<path d="M0 0 C1.32 0 2.64 0 4 0 C4 10.23 4 20.46 4 31 C2.68 31 1.36 31 0 31 C0 20.77 0 10.54 0 0 Z " fill="#FA01D1" transform="translate(329,259)"/>
<path d="M0 0 C1.1446875 0.12375 1.1446875 0.12375 2.3125 0.25 C1.16359585 2.83503435 0.01069007 4.59492563 -1.875 6.75 C-3.9290672 8.99967811 -3.9290672 8.99967811 -3.4921875 11.1796875 C-2.5588849 13.58090292 -1.37647842 14.99516264 0.375 16.875 C3.3125 20.04058824 3.3125 20.04058824 3.3125 22.25 C1.04296875 22.5234375 1.04296875 22.5234375 -1.6875 22.25 C-3.63671875 20.3515625 -3.63671875 20.3515625 -5.375 17.875 C-7.84735219 14.40810248 -7.84735219 14.40810248 -10.6875 11.25 C-10.6875 9.25 -10.6875 9.25 -8.375 6.875 C-7.488125 6.00875 -6.60125 5.1425 -5.6875 4.25 C-5.1925 3.486875 -4.6975 2.72375 -4.1875 1.9375 C-2.6875 0.25 -2.6875 0.25 0 0 Z " fill="#587FD8" transform="translate(148.6875,267.75)"/>
<path d="M0 0 C1.65 0 3.3 0 5 0 C5 7.26 5 14.52 5 22 C3.35 22 1.7 22 0 22 C0 14.74 0 7.48 0 0 Z " fill="#3494D0" transform="translate(97,268)"/>
<path d="M0 0 C1.423125 -0.061875 2.84625 -0.12375 4.3125 -0.1875 C5.51326172 -0.23970703 5.51326172 -0.23970703 6.73828125 -0.29296875 C9 0 9 0 10.8046875 1.3515625 C12 3 12 3 11.8125 5.5625 C11 8 11 8 9 10 C5.98173347 10.27240673 3.03629378 10.08675125 0 10 C0 6.7 0 3.4 0 0 Z " fill="#30313D" transform="translate(162,263)"/>
<path d="M0 0 C1.65 0 3.3 0 5 0 C5.07347656 1.77117187 5.07347656 1.77117187 5.1484375 3.578125 C5.22348879 5.13543937 5.29903561 6.69272991 5.375 8.25 C5.4059375 9.02730469 5.436875 9.80460937 5.46875 10.60546875 C5.72658242 16.07379907 5.72658242 16.07379907 8 21 C6.02 21 4.04 21 2 21 C-0.20949832 16.58970217 -0.2370648 12.51059676 -0.125 7.6875 C-0.11597656 6.94693359 -0.10695313 6.20636719 -0.09765625 5.44335938 C-0.07424213 3.62876533 -0.03837615 1.81433929 0 0 Z " fill="#21A8DA" transform="translate(71,268)"/>
<path d="M0 0 C2.60577305 2.27731426 3.6524187 4.21402762 4.6875 7.5 C5.06455078 8.66015625 5.06455078 8.66015625 5.44921875 9.84375 C6 12 6 12 6 15 C2.7 15 -0.6 15 -4 15 C-3.43179252 9.54520815 -2.05362055 5.08940744 0 0 Z " fill="#442C42" transform="translate(308,264)"/>
<path d="M0 0 C1.670625 0.061875 1.670625 0.061875 3.375 0.125 C4.5 6.75 4.5 6.75 3.375 10.125 C0 10.3125 0 10.3125 -3.625 10.125 C-5.77415785 6.90126323 -6.00786803 5.85796326 -5.625 2.125 C-3.625 0.125 -3.625 0.125 0 0 Z " fill="#9C43C9" transform="translate(222.625,34.875)"/>
<path d="M0 0 C3 0.25 3 0.25 5 2.25 C5.38286803 5.98296326 5.14915785 7.02626323 3 10.25 C0 10.625 0 10.625 -3 10.25 C-5.14915785 7.02626323 -5.38286803 5.98296326 -5 2.25 C-3 0.25 -3 0.25 0 0 Z " fill="#B035CA" transform="translate(238,92.75)"/>
<path d="M0 0 C1.134375 0.020625 2.26875 0.04125 3.4375 0.0625 C4.77109073 6.48798263 4.77109073 6.48798263 3.3125 9 C0.81737679 10.41390315 -0.74059019 10.49663997 -3.5625 10.0625 C-5.5625 7.0625 -5.5625 7.0625 -5.25 3.9375 C-4.32657507 0.07590483 -4.32657507 0.07590483 0 0 Z " fill="#9F43CD" transform="translate(222.5625,184.9375)"/>
<path d="M0 0 C1.010625 0.0825 2.02125 0.165 3.0625 0.25 C5.0625 3.25 5.0625 3.25 4.75 5.8125 C4.0625 8.25 4.0625 8.25 3.0625 10.25 C0.1875 10.4375 0.1875 10.4375 -2.9375 10.25 C-4.9375 7.25 -4.9375 7.25 -4.625 4.125 C-3.71417611 0.31610009 -3.71417611 0.31610009 0 0 Z " fill="#0DC2E7" transform="translate(87.9375,92.75)"/>
<path d="M0 0 C1.010625 0.0825 2.02125 0.165 3.0625 0.25 C5.0625 3.25 5.0625 3.25 4.8125 5.8125 C4.0625 8.25 4.0625 8.25 2.0625 10.25 C-0.4375 10.5625 -0.4375 10.5625 -2.9375 10.25 C-4.9375 7.25 -4.9375 7.25 -4.625 4.125 C-3.71417611 0.31610009 -3.71417611 0.31610009 0 0 Z " fill="#3B9ADF" transform="translate(129.9375,167.75)"/>
<path d="M0 0 C0.99 0.103125 1.98 0.20625 3 0.3125 C5 3.3125 5 3.3125 4.75 5.875 C4 8.3125 4 8.3125 2 10.3125 C-0.5 10.625 -0.5 10.625 -3 10.3125 C-5.14915785 7.08876323 -5.38286803 6.04546326 -5 2.3125 C-3 0.3125 -3 0.3125 0 0 Z " fill="#E30CC7" transform="translate(280,167.6875)"/>
<path d="M0 0 C2 3 2 3 1.6875 5.625 C1 8 1 8 0 9 C-2.9375 9.1875 -2.9375 9.1875 -6 9 C-8 7 -8 7 -8.3125 4.5 C-8.209375 3.675 -8.10625 2.85 -8 2 C-4.79191085 -0.1387261 -3.72301503 -0.47730962 0 0 Z " fill="#4E90E5" transform="translate(149,226)"/>
<path d="M0 0 C0.928125 0.20625 1.85625 0.4125 2.8125 0.625 C3.4375 2.9375 3.4375 2.9375 3.8125 5.625 C2.8225 7.11 2.8225 7.11 1.8125 8.625 C-5.0625 7.75 -5.0625 7.75 -6.1875 6.625 C-6.4375 4.1875 -6.4375 4.1875 -6.1875 1.625 C-3.1875 -0.375 -3.1875 -0.375 0 0 Z " fill="#4F91E7" transform="translate(147.1875,76.375)"/>
<path d="M0 0 C3.0625 0.3125 3.0625 0.3125 4.9375 1.625 C6.0625 3.3125 6.0625 3.3125 6.0625 6.3125 C2.1025 6.3125 -1.8575 6.3125 -5.9375 6.3125 C-4.47848361 0.47643443 -4.47848361 0.47643443 0 0 Z " fill="#393348" transform="translate(193.9375,270.6875)"/>
<path d="M0 0 C1.9375 0.375 1.9375 0.375 4 1 C5 3 5 3 5 9 C-0.28 9 -5.56 9 -11 9 C-11 8.67 -11 8.34 -11 8 C-6.9472484 7.01751476 -3.16138263 6.91840426 1 7 C0.67 4.69 0.34 2.38 0 0 Z " fill="#875FDD" transform="translate(199,270)"/>
<path d="M0 0 C-1.07401108 2.91517292 -1.77810176 4.77810176 -4 7 C-6.625 7.125 -6.625 7.125 -9 7 C-9.33 5.35 -9.66 3.7 -10 2 C-6.49223216 0.39644899 -3.85645121 -0.22036864 0 0 Z " fill="#393042" transform="translate(223,280)"/>
<path d="M0 0 C7.98992213 -0.7833257 7.98992213 -0.7833257 12.0625 2.375 C14 5 14 5 14 7 C9.91621717 6.25749403 5.98060777 5.17076699 2 4 C2.33 3.01 2.66 2.02 3 1 C2.01 0.67 1.02 0.34 0 0 Z " fill="#4385CB" transform="translate(114,268)"/>
<path d="M0 0 C1.32 0 2.64 0 4 0 C2.52961672 4.6562137 2.52961672 4.6562137 0.21875 6.15625 C-2.2715893 7.10328044 -4.09688099 7.20303291 -6.75 7.125 C-7.54921875 7.10695313 -8.3484375 7.08890625 -9.171875 7.0703125 C-9.77515625 7.04710937 -10.3784375 7.02390625 -11 7 C-11.33 6.34 -11.66 5.68 -12 5 C-9.36 5 -6.72 5 -4 5 C-5.65 4.67 -7.3 4.34 -9 4 C-9 3.67 -9 3.34 -9 3 C-7.88625 2.87625 -6.7725 2.7525 -5.625 2.625 C-1.96896323 2.3534187 -1.96896323 2.3534187 0 0 Z " fill="#3E7CBA" transform="translate(124,283)"/>
<path d="M0 0 C1.2065625 0.0309375 1.2065625 0.0309375 2.4375 0.0625 C1.4475 1.5475 1.4475 1.5475 0.4375 3.0625 C0.75480524 6.70189932 0.75480524 6.70189932 1.4375 10.0625 C-3.4375 9.1875 -3.4375 9.1875 -4.5625 8.0625 C-3.70835153 0.0904476 -3.70835153 0.0904476 0 0 Z " fill="#9257DC" transform="translate(213.5625,278.9375)"/>
<path d="M0 0 C3.63 0 7.26 0 11 0 C8 2 8 2 5.4375 2.9375 C2.69495947 3.87138318 2.69495947 3.87138318 1 7 C-0.32 7 -1.64 7 -3 7 C-1.125 2.25 -1.125 2.25 0 0 Z " fill="#844FC1" transform="translate(212,268)"/>
<path d="M0 0 C1.67542976 0.28604898 3.34385343 0.61781233 5 1 C5.042721 2.66611905 5.04063832 4.33382885 5 6 C4 7 4 7 1.4375 7.0625 C0.2309375 7.0315625 0.2309375 7.0315625 -1 7 C-1.04254356 5.00045254 -1.04080783 2.99958364 -1 1 C-0.67 0.67 -0.34 0.34 0 0 Z " fill="#5C78D1" transform="translate(160,72)"/>
<path d="M0 0 C1.67542976 0.28604898 3.34385343 0.61781233 5 1 C5 2.65 5 4.3 5 6 C3.34385343 6.38218767 1.67542976 6.71395102 0 7 C-1 6 -1 6 -1.125 3.5 C-1 1 -1 1 0 0 Z " fill="#359BDB" transform="translate(123,153)"/>
<path d="M0 0 C1.32 0 2.64 0 4 0 C4.33 1.98 4.66 3.96 5 6 C3.34385343 6.38218767 1.67542976 6.71395102 0 7 C-1 6 -1 6 -1.125 3.5 C-1 1 -1 1 0 0 Z " fill="#5D7AD5" transform="translate(160,232)"/>
<path d="M0 0 C1.32 0 2.64 0 4 0 C4.33 1.98 4.66 3.96 5 6 C3.34385343 6.38218767 1.67542976 6.71395102 0 7 C-1 6 -1 6 -1.125 3.5 C-1 1 -1 1 0 0 Z " fill="#E209C0" transform="translate(283,153)"/>
<path d="M0 0 C3.03867071 0.03387053 4.50384573 0.15593318 7.25 1.5625 C8.6875 3.25 8.6875 3.25 8.6875 6.25 C5.53622452 5.54971656 2.67107176 4.47402944 -0.3125 3.25 C-1.3025 2.92 -2.2925 2.59 -3.3125 2.25 C-3.9725 1.92 -4.6325 1.59 -5.3125 1.25 C-3.74272426 -0.31977574 -2.17053613 0.04262919 0 0 Z " fill="#A72DB6" transform="translate(267.3125,267.75)"/>
<path d="M0 0 C1.65 0 3.3 0 5 0 C5.38218767 1.65614657 5.71395102 3.32457024 6 5 C5 6 5 6 2.4375 6.0625 C1.2309375 6.0315625 1.2309375 6.0315625 0 6 C0 4.02 0 2.04 0 0 Z " fill="#07C9EB" transform="translate(80,111)"/>
<path d="M0 0 C1.67542976 0.28604898 3.34385343 0.61781233 5 1 C4.67 2.65 4.34 4.3 4 6 C2.35 6 0.7 6 -1 6 C-1.042721 4.33388095 -1.04063832 2.66617115 -1 1 C-0.67 0.67 -0.34 0.34 0 0 Z " fill="#9253D7" transform="translate(204,192)"/>
<path d="M0 0 C1.67542976 0.28604898 3.34385343 0.61781233 5 1 C4.67 2.65 4.34 4.3 4 6 C2.35 6 0.7 6 -1 6 C-1.042721 4.33388095 -1.04063832 2.66617115 -1 1 C-0.67 0.67 -0.34 0.34 0 0 Z " fill="#BC30D1" transform="translate(241,111)"/>
<path d="M0 0 C3.41021743 0.78697325 6.68885166 1.87119943 10 3 C9.01 4.485 9.01 4.485 8 6 C5.69 5.67 3.38 5.34 1 5 C0.67 3.35 0.34 1.7 0 0 Z " fill="#AE31C3" transform="translate(261,284)"/>
<path d="M0 0 C-0.33 1.65 -0.66 3.3 -1 5 C-2.65 4.67 -4.3 4.34 -6 4 C-6 2.68 -6 1.36 -6 0 C-3.50907189 -1.24546405 -2.58919267 -0.7767578 0 0 Z " fill="#9555DC" transform="translate(209,33)"/>
<path d="M0 0 C0.33 0.99 0.66 1.98 1 3 C-1.64 3.33 -4.28 3.66 -7 4 C-7.66 3.01 -8.32 2.02 -9 1 C-6.04335481 -0.4783226 -3.25770263 -0.06032783 0 0 Z " fill="#824AB9" transform="translate(222,277)"/>
<path d="M0 0 C0.33 0.66 0.66 1.32 1 2 C1.66 2 2.32 2 3 2 C3 2.99 3 3.98 3 5 C3.99 5.33 4.98 5.66 6 6 C4.68 6 3.36 6 2 6 C1.67 5.34 1.34 4.68 1 4 C0.01 4.33 -0.98 4.66 -2 5 C-2 4.34 -2 3.68 -2 3 C-3.65 3 -5.3 3 -7 3 C-7 2.67 -7 2.34 -7 2 C-4.69 1.34 -2.38 0.68 0 0 Z " fill="#9139AF" transform="translate(248,284)"/>
<path d="M0 0 C2.475 0.495 2.475 0.495 5 1 C4.67 2.32 4.34 3.64 4 5 C2.68 5 1.36 5 0 5 C0 3.35 0 1.7 0 0 Z " fill="#B524B8" transform="translate(284,285)"/>
<path d="M0 0 C1.32 0 2.64 0 4 0 C3.25 2.4375 3.25 2.4375 2 5 C-0.125 5.8125 -0.125 5.8125 -2 6 C-1.34 4.02 -0.68 2.04 0 0 Z " fill="#498DDC" transform="translate(124,283)"/>
<path d="M0 0 C1.98 0.495 1.98 0.495 4 1 C3.67 2.32 3.34 3.64 3 5 C1.68 4.67 0.36 4.34 -1 4 C-0.67 2.68 -0.34 1.36 0 0 Z " fill="#359AD9" transform="translate(98,258)"/>
<path d="M0 0 C1.65 0.33 3.3 0.66 5 1 C4.01 1.495 4.01 1.495 3 2 C3 2.66 3 3.32 3 4 C0.69 3.67 -1.62 3.34 -4 3 C-2.68 2.67 -1.36 2.34 0 2 C0 1.34 0 0.68 0 0 Z " fill="#AA2EBB" transform="translate(268,277)"/>
</svg>
